<svg width="22" height="22" viewBox="0 0 22 22" fill="none" xmlns="http://www.w3.org/2000/svg">
<path d="M20.6379 7.70992L20.6306 7.67309C20.6257 7.64853 20.6232 7.62643 20.6158 7.60188C20.6109 7.58715 20.606 7.57487 20.6036 7.56014C20.5962 7.5405 20.5913 7.5184 20.5815 7.49876C20.5766 7.48402 20.5692 7.47175 20.5618 7.45701C20.552 7.43737 20.5422 7.42018 20.5324 7.40054C20.525 7.38826 20.5176 7.37353 20.5078 7.36126C20.4882 7.33179 20.4661 7.30233 20.444 7.27286C20.4317 7.25813 20.417 7.24094 20.4022 7.22621C20.3924 7.21393 20.3801 7.20411 20.3679 7.19429C20.3531 7.17956 20.3359 7.16728 20.3212 7.15501C20.3089 7.14518 20.2967 7.13536 20.2819 7.12554C20.277 7.12309 20.2721 7.11818 20.2672 7.11572L11.2929 1.14183C11.1544 1.04936 10.9916 1 10.8251 1C10.6586 1 10.4958 1.04936 10.3574 1.14183L1.37813 7.12063C1.37321 7.12309 1.3683 7.128 1.36339 7.13045C1.35112 7.14027 1.33884 7.15009 1.32411 7.15992C1.30692 7.17219 1.29219 7.18692 1.27746 7.1992C1.26518 7.20902 1.25536 7.2213 1.24308 7.23112C1.22835 7.24585 1.21362 7.26059 1.20134 7.27777C1.17679 7.30478 1.15714 7.33425 1.1375 7.36617C1.13013 7.37844 1.12031 7.39072 1.11295 7.40545C1.10312 7.42264 1.0933 7.44228 1.08348 7.46193C1.07612 7.4742 1.07121 7.48893 1.06384 7.50367C1.05647 7.52331 1.04911 7.54541 1.04174 7.56505C1.03683 7.57978 1.03192 7.59206 1.02946 7.60679C1.02455 7.62889 1.01964 7.65344 1.01473 7.678L1.00737 7.71483C1.00246 7.75166 1 7.78849 1 7.82532V13.8041C1 13.8409 1.00246 13.8778 1.00737 13.9146L1.01473 13.9514L1.02946 14.0226C1.03437 14.0374 1.03683 14.0496 1.04174 14.0644C1.04911 14.0865 1.05647 14.1061 1.06384 14.1258C1.06875 14.1405 1.07612 14.1528 1.08348 14.1675C1.0933 14.1871 1.10067 14.2043 1.11295 14.224C1.12031 14.2363 1.12768 14.251 1.1375 14.2633C1.14978 14.2805 1.1596 14.2976 1.17433 14.3148L1.20379 14.3517C1.21607 14.3664 1.2308 14.3836 1.24554 14.3983C1.25536 14.4106 1.26763 14.4204 1.27991 14.4302C1.29464 14.445 1.31183 14.4572 1.32656 14.4695C1.33884 14.4793 1.35112 14.4892 1.36585 14.499C1.37076 14.5014 1.37567 14.5063 1.38058 14.5088L10.3574 20.4876C10.4949 20.5809 10.6594 20.63 10.8263 20.63C10.9884 20.63 11.1529 20.5834 11.2953 20.4876L20.2721 14.5088C20.277 14.5063 20.2819 14.5014 20.2868 14.499C20.2991 14.4892 20.3114 14.4793 20.3261 14.4695C20.3433 14.4572 20.358 14.4425 20.3728 14.4302C20.385 14.4204 20.3949 14.4081 20.4071 14.3983C20.4219 14.3836 20.4366 14.3688 20.4489 14.3517L20.4783 14.3148L20.5152 14.2633C20.5225 14.251 20.5324 14.2387 20.5397 14.224C20.5496 14.2043 20.5594 14.1871 20.5692 14.1675C20.5766 14.1552 20.5815 14.1405 20.5888 14.1258C20.5962 14.1061 20.6036 14.084 20.6109 14.0644C20.6158 14.0521 20.6208 14.0374 20.6232 14.0226C20.6306 14.0005 20.633 13.976 20.6379 13.9514L20.6453 13.9146C20.6502 13.8778 20.6527 13.8409 20.6527 13.8041V7.82041C20.6453 7.78358 20.6429 7.74675 20.6379 7.70992ZM11.6685 3.41795L18.2833 7.82286L15.3295 9.79697L11.671 7.35143V3.41795H11.6685ZM9.97924 3.41795V7.35143L6.32076 9.79697L3.36696 7.82286L9.97924 3.41795V3.41795ZM2.68929 9.3992L4.80089 10.811L2.68929 12.2229V9.3992ZM9.97924 18.2017L3.36696 13.7967L6.32076 11.8226L9.97924 14.2682V18.2017V18.2017ZM10.8239 12.8048L7.83817 10.811L10.8239 8.81483L13.8096 10.8086L10.8239 12.8048ZM11.6685 18.2017V14.2682L15.327 11.8226L18.2808 13.7967L11.6685 18.2017V18.2017ZM18.9585 12.2204L16.8469 10.8086L18.9585 9.39675V12.2204Z" fill="#0F75E3"/>
</svg>
